<svg width="160" height="51" viewBox="0 0 160 51" fill="none" xmlns="http://www.w3.org/2000/svg">
<path d="M70.2 36.7158V25.3408H73.8641C74.8693 25.3408 75.7729 25.57 76.575 26.0283C77.3771 26.4814 78.0021 27.1246 78.45 27.958C78.9031 28.7861 79.1323 29.7158 79.1375 30.747V31.2705C79.1375 32.3121 78.9161 33.247 78.4734 34.0752C78.0359 34.8981 77.4161 35.5439 76.6141 36.0127C75.8172 36.4762 74.9266 36.7106 73.9422 36.7158H70.2ZM72.9422 27.458V34.6064H73.8953C74.6818 34.6064 75.2859 34.3278 75.7078 33.7705C76.1297 33.208 76.3406 32.3746 76.3406 31.2705V30.7783C76.3406 29.6793 76.1297 28.8512 75.7078 28.2939C75.2859 27.7366 74.6714 27.458 73.8641 27.458H72.9422ZM92.6656 25.3408V32.7861C92.6656 33.6299 92.4859 34.3616 92.1266 34.9814C91.7672 35.596 91.2516 36.0647 90.5797 36.3877C89.9078 36.7106 89.1135 36.872 88.1969 36.872C86.8115 36.872 85.7203 36.5127 84.9234 35.7939C84.1266 35.0752 83.7203 34.0908 83.7047 32.8408V25.3408H86.4625V32.8955C86.4938 34.1403 87.0719 34.7627 88.1969 34.7627C88.7646 34.7627 89.1943 34.6064 89.4859 34.2939C89.7776 33.9814 89.9234 33.4736 89.9234 32.7705V25.3408H92.6656ZM106.788 32.8642C106.751 33.6559 106.538 34.3564 106.147 34.9658C105.756 35.57 105.207 36.0387 104.498 36.372C103.795 36.7054 102.991 36.872 102.084 36.872C100.59 36.872 99.4125 36.3851 98.5531 35.4111C97.6938 34.4371 97.2641 33.0621 97.2641 31.2861V30.7236C97.2641 29.609 97.4568 28.6351 97.8422 27.8017C98.2328 26.9632 98.7927 26.3174 99.5219 25.8642C100.251 25.4059 101.095 25.1767 102.053 25.1767C103.433 25.1767 104.543 25.5413 105.381 26.2705C106.22 26.9944 106.696 27.9944 106.811 29.2705H104.077C104.056 28.5778 103.881 28.0804 103.553 27.7783C103.225 27.4762 102.725 27.3252 102.053 27.3252C101.371 27.3252 100.871 27.5804 100.553 28.0908C100.235 28.6012 100.069 29.4163 100.053 30.5361V31.3408C100.053 32.5543 100.204 33.4215 100.506 33.9424C100.814 34.4632 101.34 34.7236 102.084 34.7236C102.715 34.7236 103.196 34.5752 103.53 34.2783C103.863 33.9814 104.04 33.5101 104.061 32.8642H106.788ZM115.152 32.4814L114.027 33.7158V36.7158H111.284V25.3408H114.027V30.3564L114.98 28.9111L117.433 25.3408H120.823L116.98 30.372L120.823 36.7158H117.573L115.152 32.4814Z" fill="#0E3D92"/>
<path d="M70.1875 36.7158V25.3408H73.8516C74.8568 25.3408 75.7604 25.57 76.5625 26.0283C77.3646 26.4814 77.9896 27.1246 78.4375 27.958C78.8906 28.7861 79.1198 29.7158 79.125 30.747V31.2705C79.125 32.3121 78.9036 33.247 78.4609 34.0752C78.0234 34.8981 77.4036 35.5439 76.6016 36.0127C75.8047 36.4762 74.9141 36.7106 73.9297 36.7158H70.1875ZM72.9297 27.458V34.6064H73.8828C74.6693 34.6064 75.2734 34.3278 75.6953 33.7705C76.1172 33.208 76.3281 32.3746 76.3281 31.2705V30.7783C76.3281 29.6793 76.1172 28.8512 75.6953 28.2939C75.2734 27.7366 74.6589 27.458 73.8516 27.458H72.9297Z" fill="#0E3D92"/>
<path d="M133.112 36.7158H132.152L125.612 26.9814V36.7158H124.644V25.3408H125.612L132.159 35.083V25.3408H133.112V36.7158ZM145.484 31.2627H140.164V35.9033H146.281V36.7158H139.203V25.3408H146.242V26.1611H140.164V30.4502H145.484V31.2627ZM159.387 26.1611H155.489V36.7158H154.528V26.1611H150.637V25.3408H159.387V26.1611Z" fill="#D85123"/>
<path fill-rule="evenodd" clip-rule="evenodd" d="M11.9588 34.8592C10.0648 31.0453 9 26.747 9 22.2H0C0 28.3579 5.10481 33.5157 11.9588 34.8592Z" fill="url(#paint0_linear)"/>
<path fill-rule="evenodd" clip-rule="evenodd" d="M66.9987 22.4796C66.8486 38.0909 54.1468 50.7 38.5 50.7C22.7599 50.7 10 37.9401 10 22.2H60.3078C60.695 20.4136 60.8449 18.4237 59.5999 15C61.5999 19 65.4333 21.6667 67.5999 22C67.4165 22.1467 67.2148 22.308 66.9987 22.4796Z" fill="url(#paint1_linear)"/>
<path d="M32.5 45.2C44.9264 45.2 55 34.9026 55 22.2H10C10 34.9026 20.0736 45.2 32.5 45.2Z" fill="url(#paint2_linear)"/>
<path d="M25 38.2C33.2843 38.2 40 31.0366 40 22.2H10C10 31.0366 16.7157 38.2 25 38.2Z" fill="url(#paint3_linear)"/>
<circle cx="70.1" cy="11.5" r="11.5" fill="url(#paint4_radial)"/>
<path fill-rule="evenodd" clip-rule="evenodd" d="M85.1481 11.8849L82.4875 10.4101C82.3308 8.19037 81.6989 6.12058 80.6978 4.2811L90.7269 9.84028V13.9296L80 19.8756C81.262 17.9789 82.1107 15.7867 82.4081 13.4038L85.1481 11.8849Z" fill="url(#paint5_linear)"/>
<path fill-rule="evenodd" clip-rule="evenodd" d="M54.8519 11.8849L57.5125 10.4101C57.6692 8.19037 58.3011 6.12058 59.3022 4.2811L49.2732 9.84028L49.2732 13.9296L60 19.8756C58.738 17.9789 57.8893 15.7867 57.5919 13.4038L54.8519 11.8849Z" fill="url(#paint6_linear)"/>
<circle cx="74" cy="8.20001" r="2.5" fill="black"/>
<circle cx="74" cy="7" r="1" fill="white"/>
<defs>
<linearGradient id="paint0_linear" x1="0.5" y1="22" x2="11.5" y2="35" gradientUnits="userSpaceOnUse">
<stop stop-color="#54E1A7"/>
<stop offset="1" stop-color="#0F65D9"/>
</linearGradient>
<linearGradient id="paint1_linear" x1="68" y1="31" x2="15.5" y2="38" gradientUnits="userSpaceOnUse">
<stop stop-color="#0C378D"/>
<stop offset="1" stop-color="#29B7F3"/>
</linearGradient>
<linearGradient id="paint2_linear" x1="53" y1="34" x2="10" y2="22" gradientUnits="userSpaceOnUse">
<stop stop-color="#362987"/>
<stop offset="1" stop-color="#9E65BB"/>
</linearGradient>
<linearGradient id="paint3_linear" x1="10" y1="22" x2="40" y2="33" gradientUnits="userSpaceOnUse">
<stop stop-color="#E89938"/>
<stop offset="1" stop-color="#D33F21"/>
</linearGradient>
<radialGradient id="paint4_radial" cx="0" cy="0" r="1" gradientUnits="userSpaceOnUse" gradientTransform="translate(72.5 12) rotate(-156.371) scale(8.73212 10.2633)">
<stop stop-color="#51BAD4"/>
<stop offset="1" stop-color="#1E6BAF"/>
</radialGradient>
<linearGradient id="paint5_linear" x1="82" y1="12" x2="91" y2="12" gradientUnits="userSpaceOnUse">
<stop stop-color="#E89938"/>
<stop offset="1" stop-color="#D64920"/>
</linearGradient>
<linearGradient id="paint6_linear" x1="49" y1="12" x2="60" y2="12" gradientUnits="userSpaceOnUse">
<stop stop-color="#50D8AB"/>
<stop offset="1"/>
</linearGradient>
</defs>
</svg>
